# Blender 4.0.2
# www.blender.org
mtllib high.mtl
o floor
v 11.367213 10.100000 -8.479773
v 11.367213 9.900000 -8.479773
v 11.367213 10.100000 11.520227
v 11.367213 9.900000 11.520227
v -8.632787 10.100000 -8.479773
v -8.632787 9.900000 -8.479773
v -8.632787 10.100000 11.520227
v -8.632787 9.900000 11.520227
vn -0.0000 1.0000 -0.0000
vn -0.0000 -0.0000 1.0000
vn -1.0000 -0.0000 -0.0000
vn -0.0000 -1.0000 -0.0000
vn 1.0000 -0.0000 -0.0000
vn -0.0000 -0.0000 -1.0000
vt 0.875000 0.500000
vt 0.625000 0.750000
vt 0.625000 0.500000
vt 0.375000 1.000000
vt 0.375000 0.750000
vt 0.625000 0.000000
vt 0.375000 0.250000
vt 0.375000 0.000000
vt 0.375000 0.500000
vt 0.125000 0.750000
vt 0.125000 0.500000
vt 0.625000 0.250000
vt 0.875000 0.750000
vt 0.625000 1.000000
s 0
usemtl Material
f 5/1/1 3/2/1 1/3/1
f 3/2/2 8/4/2 4/5/2
f 7/6/3 6/7/3 8/8/3
f 2/9/4 8/10/4 6/11/4
f 1/3/5 4/5/5 2/9/5
f 5/12/6 2/9/6 6/7/6
f 5/1/1 7/13/1 3/2/1
f 3/2/2 7/14/2 8/4/2
f 7/6/3 5/12/3 6/7/3
f 2/9/4 4/5/4 8/10/4
f 1/3/5 3/2/5 4/5/5
f 5/12/6 1/3/6 2/9/6
o wall0
v -5.398862 10.000001 4.184247
v -5.398862 13.000001 4.184247
v -5.398862 10.000001 4.034248
v -5.398862 13.000001 4.034248
v 4.601138 10.000001 4.184247
v 4.601138 13.000001 4.184247
v 4.601138 10.000001 4.034248
v 4.601138 13.000001 4.034248
v 1.954072 12.300000 4.034248
v 1.954072 10.000001 4.034248
v 3.254072 12.300000 4.034248
v 3.254072 10.000001 4.034248
v 1.954072 12.300000 4.184247
v 3.254072 12.300000 4.184247
v 3.254072 10.000001 4.184247
v 1.954072 10.000001 4.184247
vn -1.0000 -0.0000 -0.0000
vn -0.0000 -0.0000 -1.0000
vn 1.0000 -0.0000 -0.0000
vn -0.0000 -0.0000 1.0000
vn -0.0000 -1.0000 -0.0000
vn -0.0000 1.0000 -0.0000
vt 0.625000 0.000000
vt 0.375000 0.250000
vt 0.375000 0.000000
vt 0.625000 0.250000
vt 0.625000 0.500000
vt 0.566667 0.433823
vt 0.375000 0.750000
vt 0.375000 0.500000
vt 0.625000 0.750000
vt 0.625000 1.000000
vt 0.566667 0.783677
vt 0.341323 0.750000
vt 0.341323 0.500000
vt 0.125000 0.500000
vt 0.308823 0.750000
vt 0.125000 0.750000
vt 0.875000 0.500000
vt 0.625000 0.193171
vt 0.375000 0.155671
vt 0.375000 0.193171
vt 0.625000 0.556829
vt 0.375000 0.594329
vt 0.625000 0.594329
vt 0.875000 0.594329
vt 0.875000 0.556829
vt 0.375000 0.433823
vt 0.375000 0.466323
vt 0.566667 0.466323
vt 0.375000 0.783677
vt 0.375000 1.000000
vt 0.375000 0.816177
vt 0.566667 0.816177
vt 0.308823 0.500000
vt 0.875000 0.750000
vt 0.625000 0.155671
vt 0.375000 0.556829
s 0
f 10/15/7 11/16/7 9/17/7
f 12/18/8 16/19/8 17/20/8
f 16/19/9 13/21/9 15/22/9
f 14/23/10 10/24/10 22/25/10
f 15/22/11 23/26/11 20/27/11
f 11/28/11 24/29/11 9/30/11
f 12/31/12 14/23/12 16/19/12
f 17/32/9 24/33/9 18/34/9
f 19/35/7 23/36/7 22/37/7
f 19/35/11 21/38/11 17/39/11
f 10/15/7 12/18/7 11/16/7
f 18/40/8 11/16/8 12/18/8
f 16/19/8 15/22/8 20/41/8
f 16/19/8 20/41/8 19/42/8
f 17/20/8 18/40/8 12/18/8
f 16/19/8 19/42/8 17/20/8
f 16/19/9 14/23/9 13/21/9
f 23/43/10 13/21/10 14/23/10
f 10/24/10 9/44/10 24/45/10
f 10/24/10 24/45/10 21/46/10
f 22/25/10 23/43/10 14/23/10
f 10/24/10 21/46/10 22/25/10
f 15/22/11 13/21/11 23/26/11
f 11/28/11 18/47/11 24/29/11
f 12/31/12 10/48/12 14/23/12
f 17/32/9 21/49/9 24/33/9
f 19/35/7 20/50/7 23/36/7
f 19/35/11 22/37/11 21/38/11
o player
v -0.714277 10.018588 1.212834
v -0.714277 12.018588 1.212834
v -0.714277 10.018588 0.212834
v -0.714277 12.018588 0.212834
v 0.285723 10.018588 1.212834
v 0.285723 12.018588 1.212834
v 0.285723 10.018588 0.212834
v 0.285723 12.018588 0.212834
vn -1.0000 -0.0000 -0.0000
vn -0.0000 -0.0000 -1.0000
vn 1.0000 -0.0000 -0.0000
vn -0.0000 -0.0000 1.0000
vn -0.0000 -1.0000 -0.0000
vn -0.0000 1.0000 -0.0000
vt 0.625000 0.000000
vt 0.375000 0.250000
vt 0.375000 0.000000
vt 0.625000 0.250000
vt 0.375000 0.500000
vt 0.625000 0.500000
vt 0.375000 0.750000
vt 0.625000 0.750000
vt 0.375000 1.000000
vt 0.125000 0.750000
vt 0.125000 0.500000
vt 0.875000 0.500000
vt 0.625000 1.000000
vt 0.875000 0.750000
s 0
f 26/51/13 27/52/13 25/53/13
f 28/54/14 31/55/14 27/52/14
f 32/56/15 29/57/15 31/55/15
f 30/58/16 25/59/16 29/57/16
f 31/55/17 25/60/17 27/61/17
f 28/62/18 30/58/18 32/56/18
f 26/51/13 28/54/13 27/52/13
f 28/54/14 32/56/14 31/55/14
f 32/56/15 30/58/15 29/57/15
f 30/58/16 26/63/16 25/59/16
f 31/55/17 29/57/17 25/60/17
f 28/62/18 26/64/18 30/58/18
o wall_template
v -5.000000 3.232866 4.184247
v -5.000000 6.232866 4.184247
v -5.000000 3.232866 4.034247
v -5.000000 6.232866 4.034247
v 5.000000 3.232866 4.184247
v 5.000000 6.232866 4.184247
v 5.000000 3.232866 4.034247
v 5.000000 6.232866 4.034247
vn -1.0000 -0.0000 -0.0000
vn -0.0000 -0.0000 -1.0000
vn 1.0000 -0.0000 -0.0000
vn -0.0000 -0.0000 1.0000
vn -0.0000 -1.0000 -0.0000
vn -0.0000 1.0000 -0.0000
vt 0.625000 0.000000
vt 0.375000 0.250000
vt 0.375000 0.000000
vt 0.625000 0.250000
vt 0.375000 0.500000
vt 0.625000 0.500000
vt 0.375000 0.750000
vt 0.625000 0.750000
vt 0.375000 1.000000
vt 0.125000 0.750000
vt 0.125000 0.500000
vt 0.875000 0.500000
vt 0.625000 1.000000
vt 0.875000 0.750000
s 0
f 34/65/19 35/66/19 33/67/19
f 36/68/20 39/69/20 35/66/20
f 40/70/21 37/71/21 39/69/21
f 38/72/22 33/73/22 37/71/22
f 39/69/23 33/74/23 35/75/23
f 36/76/24 38/72/24 40/70/24
f 34/65/19 36/68/19 35/66/19
f 36/68/20 40/70/20 39/69/20
f 40/70/21 38/72/21 37/71/21
f 38/72/22 34/77/22 33/73/22
f 39/69/23 37/71/23 33/74/23
f 36/76/24 34/78/24 38/72/24
o wall1
v -3.910804 9.774807 4.135319
v -3.910804 12.774807 4.135319
v -4.060804 9.774807 4.135319
v -4.060804 12.774807 4.135319
v -3.910804 9.774807 1.044212
v -3.910804 12.774807 1.044212
v -4.060804 9.774807 1.044212
v -4.060804 12.774807 1.044212
v -4.060804 12.299999 2.134523
v -4.060804 12.299999 3.434523
v -4.060804 10.000000 3.434523
v -4.060804 10.000000 2.134523
v -3.910804 12.299999 3.434523
v -3.910804 12.299999 2.134523
v -3.910804 10.000000 3.434523
v -3.910804 10.000000 2.134523
vn -0.0000 -0.0000 1.0000
vn -1.0000 -0.0000 -0.0000
vn -0.0000 -0.0000 -1.0000
vn 1.0000 -0.0000 -0.0000
vn -0.0000 -1.0000 -0.0000
vn -0.0000 1.0000 -0.0000
vt 0.625000 0.000000
vt 0.375000 0.250000
vt 0.375000 0.000000
vt 0.625000 0.500000
vt 0.375000 0.500000
vt 0.585433 0.411819
vt 0.585433 0.306678
vt 0.393766 0.306678
vt 0.375000 0.750000
vt 0.375000 1.000000
vt 0.585433 0.943322
vt 0.625000 1.000000
vt 0.625000 0.750000
vt 0.393766 0.838181
vt 0.125000 0.750000
vt 0.125000 0.500000
vt 0.875000 0.500000
vt 0.375000 0.092064
vt 0.625000 0.054564
vt 0.375000 0.054564
vt 0.625000 0.657936
vt 0.375000 0.695436
vt 0.625000 0.695436
vt 0.375000 0.657936
vt 0.125000 0.695436
vt 0.875000 0.695436
vt 0.875000 0.657936
vt 0.625000 0.250000
vt 0.393766 0.411819
vt 0.393766 0.943322
vt 0.585433 0.838181
vt 0.875000 0.750000
vt 0.625000 0.092064
vt 0.125000 0.657936
s 0
f 42/79/25 43/80/25 41/81/25
f 48/82/26 47/83/26 49/84/26
f 43/80/26 50/85/26 51/86/26
f 48/82/27 45/87/27 47/83/27
f 41/88/28 53/89/28 42/90/28
f 45/87/28 46/91/28 56/92/28
f 47/83/29 41/93/29 43/94/29
f 44/95/30 46/91/30 48/82/30
f 51/96/27 53/97/27 55/98/27
f 49/99/25 56/100/25 54/101/25
f 52/102/30 55/103/30 56/100/30
f 49/99/29 53/104/29 50/105/29
f 42/79/25 44/106/25 43/80/25
f 49/84/26 50/85/26 44/106/26
f 47/83/26 43/80/26 51/86/26
f 47/83/26 51/86/26 52/107/26
f 49/84/26 44/106/26 48/82/26
f 47/83/26 52/107/26 49/84/26
f 43/80/26 44/106/26 50/85/26
f 48/82/27 46/91/27 45/87/27
f 41/88/28 55/108/28 53/89/28
f 56/92/28 55/108/28 41/88/28
f 46/91/28 42/90/28 53/89/28
f 46/91/28 53/89/28 54/109/28
f 56/92/28 41/88/28 45/87/28
f 46/91/28 54/109/28 56/92/28
f 47/83/29 45/87/29 41/93/29
f 44/95/30 42/110/30 46/91/30
f 51/96/27 50/111/27 53/97/27
f 49/99/25 52/102/25 56/100/25
f 52/102/30 51/112/30 55/103/30
f 49/99/29 54/101/29 53/104/29
o wall2
v -3.910911 9.774807 0.958028
v -3.910911 12.774807 0.958028
v -3.910911 9.774807 1.108028
v -3.910911 12.774807 1.108028
v -7.002018 9.774807 0.958028
v -7.002018 12.774807 0.958028
v -7.002018 9.774807 1.108028
v -7.002018 12.774807 1.108028
vn 1.0000 -0.0000 -0.0000
vn -0.0000 -0.0000 1.0000
vn -1.0000 -0.0000 -0.0000
vn -0.0000 -0.0000 -1.0000
vn -0.0000 -1.0000 -0.0000
vn -0.0000 1.0000 -0.0000
vt 0.625000 0.000000
vt 0.375000 0.250000
vt 0.375000 0.000000
vt 0.625000 0.250000
vt 0.375000 0.500000
vt 0.625000 0.500000
vt 0.375000 0.750000
vt 0.625000 0.750000
vt 0.375000 1.000000
vt 0.125000 0.750000
vt 0.125000 0.500000
vt 0.875000 0.500000
vt 0.625000 1.000000
vt 0.875000 0.750000
s 0
f 58/113/31 59/114/31 57/115/31
f 60/116/32 63/117/32 59/114/32
f 64/118/33 61/119/33 63/117/33
f 62/120/34 57/121/34 61/119/34
f 63/117/35 57/122/35 59/123/35
f 60/124/36 62/120/36 64/118/36
f 58/113/31 60/116/31 59/114/31
f 60/116/32 64/118/32 63/117/32
f 64/118/33 62/120/33 61/119/33
f 62/120/34 58/125/34 57/121/34
f 63/117/35 61/119/35 57/122/35
f 60/124/36 58/126/36 62/120/36
o wall3
v -5.381464 10.000000 1.491288
v -5.381464 13.000000 1.491288
v -5.531464 10.000000 1.491288
v -5.531464 13.000000 1.491288
v -5.381464 10.000000 -8.479288
v -5.381464 13.000000 -8.479288
v -5.531465 10.000000 -8.479288
v -5.531465 13.000000 -8.479288
vn -0.0000 -0.0000 1.0000
vn -1.0000 -0.0000 -0.0000
vn -0.0000 -0.0000 -1.0000
vn 1.0000 -0.0000 -0.0000
vn -0.0000 -1.0000 -0.0000
vn -0.0000 1.0000 -0.0000
vt 0.625000 0.000000
vt 0.375000 0.250000
vt 0.375000 0.000000
vt 0.625000 0.250000
vt 0.375000 0.500000
vt 0.625000 0.500000
vt 0.375000 0.750000
vt 0.625000 0.750000
vt 0.375000 1.000000
vt 0.125000 0.750000
vt 0.125000 0.500000
vt 0.875000 0.500000
vt 0.625000 1.000000
vt 0.875000 0.750000
s 0
f 66/127/37 67/128/37 65/129/37
f 68/130/38 71/131/38 67/128/38
f 72/132/39 69/133/39 71/131/39
f 70/134/40 65/135/40 69/133/40
f 71/131/41 65/136/41 67/137/41
f 68/138/42 70/134/42 72/132/42
f 66/127/37 68/130/37 67/128/37
f 68/130/38 72/132/38 71/131/38
f 72/132/39 70/134/39 69/133/39
f 70/134/40 66/139/40 65/135/40
f 71/131/41 69/133/41 65/136/41
f 68/138/42 66/140/42 70/134/42
o wall4
v -5.408866 10.000001 -5.820890
v -5.408866 13.000001 -5.820890
v -5.408866 10.000001 -5.970890
v -5.408866 13.000001 -5.970890
v 4.591134 10.000001 -5.820890
v 4.591134 13.000001 -5.820890
v 4.591134 10.000001 -5.970890
v 4.591134 13.000001 -5.970890
v 0.500000 12.300000 -5.970890
v -3.500000 12.300000 -5.970890
v 0.500000 10.000001 -5.970890
v -3.500000 10.000001 -5.970890
v 0.500000 12.300000 -5.820890
v -3.500000 10.000001 -5.820890
v 0.500000 10.000001 -5.820890
v -3.500000 12.300000 -5.820890
vn -1.0000 -0.0000 -0.0000
vn -0.0000 -0.0000 -1.0000
vn 1.0000 -0.0000 -0.0000
vn -0.0000 -0.0000 1.0000
vn -0.0000 -1.0000 -0.0000
vn -0.0000 1.0000 -0.0000
vt 0.625000 0.000000
vt 0.375000 0.250000
vt 0.375000 0.000000
vt 0.625000 0.250000
vt 0.625000 0.500000
vt 0.566667 0.297722
vt 0.375000 0.750000
vt 0.375000 0.500000
vt 0.625000 0.750000
vt 0.625000 1.000000
vt 0.566667 0.852278
vt 0.272722 0.750000
vt 0.272722 0.500000
vt 0.125000 0.500000
vt 0.172722 0.750000
vt 0.125000 0.750000
vt 0.875000 0.500000
vt 0.625000 0.149481
vt 0.375000 0.111981
vt 0.375000 0.149481
vt 0.375000 0.638019
vt 0.625000 0.600519
vt 0.375000 0.600519
vt 0.875000 0.638019
vt 0.875000 0.600519
vt 0.375000 0.297722
vt 0.375000 0.397722
vt 0.566667 0.397722
vt 0.375000 0.852278
vt 0.375000 1.000000
vt 0.375000 0.952278
vt 0.566667 0.952278
vt 0.172722 0.500000
vt 0.875000 0.750000
vt 0.625000 0.111981
vt 0.625000 0.638019
s 0
f 74/141/43 75/142/43 73/143/43
f 76/144/44 80/145/44 82/146/44
f 80/145/45 77/147/45 79/148/45
f 78/149/46 74/150/46 85/151/46
f 79/148/47 87/152/47 83/153/47
f 75/154/47 86/155/47 73/156/47
f 76/157/48 78/149/48 80/145/48
f 82/158/45 86/159/45 84/160/45
f 87/161/43 81/162/43 83/163/43
f 81/162/47 88/164/47 82/165/47
f 74/141/43 76/144/43 75/142/43
f 84/166/44 75/142/44 76/144/44
f 80/145/44 79/148/44 83/167/44
f 80/145/44 83/167/44 81/168/44
f 82/146/44 84/166/44 76/144/44
f 80/145/44 81/168/44 82/146/44
f 80/145/45 78/149/45 77/147/45
f 85/151/46 87/169/46 77/147/46
f 74/150/46 73/170/46 86/171/46
f 74/150/46 86/171/46 88/172/46
f 85/151/46 77/147/46 78/149/46
f 74/150/46 88/172/46 85/151/46
f 79/148/47 77/147/47 87/152/47
f 75/154/47 84/173/47 86/155/47
f 76/157/48 74/174/48 78/149/48
f 82/158/45 88/175/45 86/159/45
f 87/161/43 85/176/43 81/162/43
f 81/162/47 85/176/47 88/164/47
o wall5
v 4.670908 10.000002 4.088624
v 4.670908 13.000002 4.088624
v 4.520908 10.000002 4.088624
v 4.520908 13.000002 4.088624
v 4.670908 10.000002 -5.911376
v 4.670908 13.000002 -5.911376
v 4.520908 10.000002 -5.911376
v 4.520908 13.000002 -5.911376
v 4.520908 12.300001 3.434523
v 4.520908 12.300001 2.134523
v 4.520908 10.000002 3.434523
v 4.520908 10.000002 2.134523
v 4.670908 10.000002 3.434523
v 4.670908 12.300001 3.434523
v 4.670908 12.300001 2.134523
v 4.670908 10.000002 2.134523
v 4.520908 12.300000 0.934520
v 4.520908 12.300000 -0.365480
v 4.520908 10.000002 0.934520
v 4.520908 10.000002 -0.365480
v 4.670908 10.000002 0.934520
v 4.670908 10.000002 -0.365480
v 4.670908 12.300000 0.934520
v 4.670908 12.300000 -0.365480
vn -0.0000 -0.0000 1.0000
vn -1.0000 -0.0000 -0.0000
vn -0.0000 -0.0000 -1.0000
vn 1.0000 -0.0000 -0.0000
vn -0.0000 -1.0000 -0.0000
vn -0.0000 1.0000 -0.0000
vt 0.625000 0.000000
vt 0.375000 0.250000
vt 0.375000 0.000000
vt 0.566667 0.298853
vt 0.625000 0.250000
vt 0.625000 0.500000
vt 0.375000 0.750000
vt 0.375000 0.500000
vt 0.625000 0.750000
vt 0.566667 0.951147
vt 0.566666 0.921147
vt 0.236353 0.750000
vt 0.236353 0.500000
vt 0.173853 0.500000
vt 0.203853 0.750000
vt 0.173853 0.750000
vt 0.125000 0.500000
vt 0.141353 0.750000
vt 0.125000 0.750000
vt 0.875000 0.500000
vt 0.625000 0.086630
vt 0.375000 0.049130
vt 0.375000 0.086630
vt 0.625000 0.663370
vt 0.375000 0.700870
vt 0.625000 0.700870
vt 0.875000 0.700870
vt 0.875000 0.663370
vt 0.625000 0.086629
vt 0.375000 0.049129
vt 0.375000 0.086629
vt 0.625000 0.663371
vt 0.375000 0.700871
vt 0.625000 0.700871
vt 0.875000 0.700871
vt 0.875000 0.663371
vt 0.566667 0.328853
vt 0.375000 0.328853
vt 0.375000 0.298853
vt 0.375000 0.361353
vt 0.566666 0.361353
vt 0.566667 0.266353
vt 0.375000 0.266353
vt 0.566666 0.888647
vt 0.375000 0.888647
vt 0.625000 1.000000
vt 0.375000 1.000000
vt 0.375000 0.983647
vt 0.566667 0.983648
vt 0.375000 0.951147
vt 0.375000 0.921147
vt 0.203853 0.500000
vt 0.141353 0.500000
vt 0.875000 0.750000
vt 0.625000 0.049130
vt 0.375000 0.663370
vt 0.625000 0.049129
vt 0.375000 0.663371
s 0
f 90/177/49 91/178/49 89/179/49
f 98/180/50 92/181/50 96/182/50
f 96/182/51 93/183/51 95/184/51
f 94/185/52 103/186/52 111/187/52
f 95/184/53 110/188/53 108/189/53
f 100/190/53 109/191/53 104/192/53
f 91/193/53 101/194/53 89/195/53
f 92/196/54 94/185/54 96/182/54
f 97/197/51 101/198/51 99/199/51
f 98/200/49 104/201/49 103/202/49
f 98/200/53 102/203/53 97/204/53
f 105/205/51 109/206/51 107/207/51
f 106/208/49 110/209/49 112/210/49
f 106/208/53 111/211/53 105/212/53
f 90/177/49 92/181/49 91/178/49
f 105/213/50 107/214/50 100/215/50
f 105/213/50 100/215/50 98/180/50
f 95/184/50 108/216/50 106/217/50
f 106/217/50 105/213/50 98/180/50
f 97/218/50 99/219/50 91/178/50
f 97/218/50 91/178/50 92/181/50
f 96/182/50 95/184/50 106/217/50
f 98/180/50 97/218/50 92/181/50
f 96/182/50 106/217/50 98/180/50
f 96/182/51 94/185/51 93/183/51
f 112/220/52 110/221/52 93/183/52
f 90/222/52 89/223/52 101/224/52
f 90/222/52 101/224/52 102/225/52
f 112/220/52 93/183/52 94/185/52
f 104/226/52 109/227/52 111/187/52
f 111/187/52 112/220/52 94/185/52
f 94/185/52 90/222/52 102/225/52
f 103/186/52 104/226/52 111/187/52
f 94/185/52 102/225/52 103/186/52
f 95/184/53 93/183/53 110/188/53
f 100/190/53 107/228/53 109/191/53
f 91/193/53 99/229/53 101/194/53
f 92/196/54 90/230/54 94/185/54
f 97/197/51 102/231/51 101/198/51
f 98/200/49 100/232/49 104/201/49
f 98/200/53 103/202/53 102/203/53
f 105/205/51 111/233/51 109/206/51
f 106/208/49 108/234/49 110/209/49
f 106/208/53 112/210/53 111/211/53
o wall6
v 4.541834 9.981955 7.493255
v 4.541834 12.981955 7.493255
v 4.541834 9.981955 7.343255
v 4.541834 12.981955 7.343255
v 11.486113 9.981955 7.493255
v 11.486113 12.981955 7.493255
v 11.486113 9.981955 7.343255
v 11.486113 12.981955 7.343255
vn -1.0000 -0.0000 -0.0000
vn -0.0000 -0.0000 -1.0000
vn 1.0000 -0.0000 -0.0000
vn -0.0000 -0.0000 1.0000
vn -0.0000 -1.0000 -0.0000
vn -0.0000 1.0000 -0.0000
vt 0.625000 0.000000
vt 0.375000 0.250000
vt 0.375000 0.000000
vt 0.625000 0.250000
vt 0.375000 0.500000
vt 0.625000 0.500000
vt 0.375000 0.750000
vt 0.625000 0.750000
vt 0.375000 1.000000
vt 0.125000 0.750000
vt 0.125000 0.500000
vt 0.875000 0.500000
vt 0.625000 1.000000
vt 0.875000 0.750000
s 0
f 114/235/55 115/236/55 113/237/55
f 116/238/56 119/239/56 115/236/56
f 120/240/57 117/241/57 119/239/57
f 118/242/58 113/243/58 117/241/58
f 119/239/59 113/244/59 115/245/59
f 116/246/60 118/242/60 120/240/60
f 114/235/55 116/238/55 115/236/55
f 116/238/56 120/240/56 119/239/56
f 120/240/57 118/242/57 117/241/57
f 118/242/58 114/247/58 113/243/58
f 119/239/59 117/241/59 113/244/59
f 116/246/60 114/248/60 118/242/60
o wall7
v 4.671278 9.981955 10.037622
v 4.671278 12.981955 10.037622
v 4.521277 9.981955 10.037622
v 4.521277 12.981955 10.037622
v 4.671277 9.981955 4.037622
v 4.671277 12.981955 4.037622
v 4.521277 9.981955 4.037622
v 4.521277 12.981955 4.037622
vn -0.0000 -0.0000 1.0000
vn -1.0000 -0.0000 -0.0000
vn -0.0000 -0.0000 -1.0000
vn 1.0000 -0.0000 -0.0000
vn -0.0000 -1.0000 -0.0000
vn -0.0000 1.0000 -0.0000
vt 0.625000 0.000000
vt 0.375000 0.250000
vt 0.375000 0.000000
vt 0.625000 0.250000
vt 0.375000 0.500000
vt 0.625000 0.500000
vt 0.375000 0.750000
vt 0.625000 0.750000
vt 0.375000 1.000000
vt 0.125000 0.750000
vt 0.125000 0.500000
vt 0.875000 0.500000
vt 0.625000 1.000000
vt 0.875000 0.750000
s 0
f 122/249/61 123/250/61 121/251/61
f 124/252/62 127/253/62 123/250/62
f 128/254/63 125/255/63 127/253/63
f 126/256/64 121/257/64 125/255/64
f 127/253/65 121/258/65 123/259/65
f 124/260/66 126/256/66 128/254/66
f 122/249/61 124/252/61 123/250/61
f 124/252/62 128/254/62 127/253/62
f 128/254/63 126/256/63 125/255/63
f 126/256/64 122/261/64 121/257/64
f 127/253/65 125/255/65 121/258/65
f 124/260/66 122/262/66 126/256/66
o wall9
v 4.541834 9.981955 1.640369
v 4.541834 12.981955 1.640369
v 4.541834 9.981955 1.490369
v 4.541834 12.981955 1.490369
v 11.486113 9.981955 1.640369
v 11.486113 12.981955 1.640369
v 11.486113 9.981955 1.490369
v 11.486113 12.981955 1.490369
vn -1.0000 -0.0000 -0.0000
vn -0.0000 -0.0000 -1.0000
vn 1.0000 -0.0000 -0.0000
vn -0.0000 -0.0000 1.0000
vn -0.0000 -1.0000 -0.0000
vn -0.0000 1.0000 -0.0000
vt 0.625000 0.000000
vt 0.375000 0.250000
vt 0.375000 0.000000
vt 0.625000 0.250000
vt 0.375000 0.500000
vt 0.625000 0.500000
vt 0.375000 0.750000
vt 0.625000 0.750000
vt 0.375000 1.000000
vt 0.125000 0.750000
vt 0.125000 0.500000
vt 0.875000 0.500000
vt 0.625000 1.000000
vt 0.875000 0.750000
s 0
f 130/263/67 131/264/67 129/265/67
f 132/266/68 135/267/68 131/264/68
f 136/268/69 133/269/69 135/267/69
f 134/270/70 129/271/70 133/269/70
f 135/267/71 129/272/71 131/273/71
f 132/274/72 134/270/72 136/268/72
f 130/263/67 132/266/67 131/264/67
f 132/266/68 136/268/68 135/267/68
f 136/268/69 134/270/69 133/269/69
f 134/270/70 130/275/70 129/271/70
f 135/267/71 133/269/71 129/272/71
f 132/274/72 130/276/72 134/270/72
o wall8
v 4.541835 9.981955 -5.823556
v 4.541835 12.981955 -5.823556
v 4.541835 9.981955 -5.973556
v 4.541835 12.981955 -5.973556
v 11.486112 9.981955 -5.823556
v 11.486112 12.981955 -5.823556
v 11.486112 9.981955 -5.973556
v 11.486112 12.981955 -5.973556
v 6.000000 12.300000 -5.973556
v 6.000000 10.000000 -5.973556
v 10.000000 10.000000 -5.973556
v 10.000000 12.300000 -5.973556
v 10.000000 12.300000 -5.823556
v 6.000000 10.000000 -5.823556
v 6.000000 12.300000 -5.823556
v 10.000000 10.000000 -5.823556
vn -1.0000 -0.0000 -0.0000
vn -0.0000 -0.0000 -1.0000
vn 1.0000 -0.0000 -0.0000
vn -0.0000 -0.0000 1.0000
vn -0.0000 -1.0000 -0.0000
vn -0.0000 1.0000 -0.0000
vt 0.625000 0.000000
vt 0.375000 0.250000
vt 0.375000 0.000000
vt 0.625000 0.250000
vt 0.625000 0.500000
vt 0.568170 0.302495
vt 0.376504 0.446499
vt 0.375000 0.500000
vt 0.375000 0.750000
vt 0.625000 0.750000
vt 0.625000 1.000000
vt 0.568170 0.803501
vt 0.375000 1.000000
vt 0.376504 0.803501
vt 0.376504 0.947505
vt 0.125000 0.750000
vt 0.125000 0.500000
vt 0.875000 0.500000
vt 0.375000 0.150148
vt 0.625000 0.112648
vt 0.375000 0.112648
vt 0.625000 0.599852
vt 0.375000 0.637352
vt 0.625000 0.637352
vt 0.375000 0.599852
vt 0.125000 0.637352
vt 0.875000 0.637352
vt 0.875000 0.599852
vt 0.376504 0.302495
vt 0.568170 0.446499
vt 0.568170 0.947505
vt 0.875000 0.750000
vt 0.625000 0.150148
vt 0.125000 0.599852
s 0
f 138/277/73 139/278/73 137/279/73
f 140/280/74 144/281/74 145/282/74
f 139/278/74 147/283/74 143/284/74
f 144/281/75 141/285/75 143/284/75
f 142/286/76 138/287/76 149/288/76
f 137/289/76 152/290/76 150/291/76
f 143/284/77 137/292/77 139/293/77
f 140/294/78 142/286/78 144/281/78
f 146/295/75 151/296/75 150/297/75
f 148/298/73 152/299/73 149/300/73
f 147/301/78 150/302/78 152/299/78
f 148/298/77 151/303/77 145/304/77
f 138/277/73 140/280/73 139/278/73
f 146/305/74 139/278/74 140/280/74
f 144/281/74 143/284/74 147/283/74
f 144/281/74 147/283/74 148/306/74
f 145/282/74 146/305/74 140/280/74
f 144/281/74 148/306/74 145/282/74
f 139/278/74 146/305/74 147/283/74
f 144/281/75 142/286/75 141/285/75
f 149/288/76 152/290/76 141/285/76
f 138/287/76 137/289/76 150/291/76
f 138/287/76 150/291/76 151/307/76
f 149/288/76 141/285/76 142/286/76
f 138/287/76 151/307/76 149/288/76
f 137/289/76 141/285/76 152/290/76
f 143/284/77 141/285/77 137/292/77
f 140/294/78 138/308/78 142/286/78
f 146/295/75 145/309/75 151/296/75
f 148/298/73 147/301/73 152/299/73
f 147/301/78 146/310/78 150/302/78
f 148/298/77 149/300/77 151/303/77
