# Blender 4.0.2
# www.blender.org
mtllib high.mtl
o table_mt_old-dirty
v 0.728490 0.709731 3.274835
v 0.728778 0.709731 -3.473042
v -0.753289 0.709731 3.273972
v 1.248522 1.120399 -4.003997
v 1.248522 1.120399 3.849543
v -1.271797 1.120399 3.849543
v -1.271796 1.120399 -4.003997
v 1.248523 1.260628 -4.003996
v 1.248522 1.260628 3.849543
v -1.271797 1.260628 3.849542
v -1.271797 1.260628 -4.003997
v -0.925171 1.121315 -3.624397
v -0.925171 1.121315 3.469942
v 0.901896 1.121315 3.469943
v 0.901897 1.121315 -3.624396
v -0.925171 0.703960 -3.624398
v -0.925171 0.703960 3.469943
v 0.901897 0.703960 3.469943
v 0.901897 0.703960 -3.624397
v -0.754021 0.709731 -3.473042
v -0.549138 -0.420614 3.283979
v -0.549138 -0.782368 3.259319
v -0.635074 -0.782368 3.259319
v -0.635074 -0.420614 3.283979
v 0.759533 -0.107519 3.182430
v 0.747558 -0.289140 3.182430
v 0.747558 -0.289140 3.096494
v 0.759533 -0.107519 3.096494
v -0.744199 -0.107519 3.182429
v -0.732626 -0.289140 3.182429
v -0.732626 -0.289140 3.096493
v -0.744199 -0.107519 3.096494
v 0.524947 -0.420614 3.312677
v 0.524947 -0.782368 3.288017
v 0.610883 -0.782368 3.288017
v 0.610883 -0.420614 3.312677
v -0.772897 -0.107519 -3.381438
v -0.775673 -0.289140 -3.295503
v -0.775673 -0.289140 -3.381439
v -0.772897 -0.107519 -3.295503
v -0.635074 -0.420614 -3.498969
v -0.635074 -0.782368 -3.479784
v -0.549138 -0.782368 -3.479784
v -0.549138 -0.420614 -3.498969
v 0.610883 -0.420614 -3.518111
v 0.610883 -0.782368 -3.498927
v 0.524947 -0.782368 -3.498927
v 0.524947 -0.420614 -3.518111
v 0.749967 -0.107519 -3.381438
v 0.723643 -0.289140 -3.381438
v 0.723643 -0.289140 -3.295502
v 0.749967 -0.107519 -3.295502
v -0.754021 0.709731 -3.473042
v -0.506402 -1.256572 -3.378652
v -0.660314 -1.256572 -3.226041
v 0.481603 -1.256572 3.027713
v 0.635515 -1.256572 -3.226041
v 0.481603 -1.256572 -3.378652
v 0.481603 -1.256572 -3.226041
v 0.635515 -1.256572 -3.378652
v -0.752699 0.709731 -3.224535
v -0.506009 0.709731 -3.473329
v -0.506009 0.709731 -3.224535
v 0.479984 0.709731 -3.473042
v -0.752987 0.709731 3.026993
v -0.753289 0.709731 3.273972
v -0.506598 0.709731 3.273972
v -0.660314 -1.256572 -3.378652
v -0.506402 -1.256572 -3.226041
v -0.506402 -1.256572 3.180324
v -0.660314 -1.256572 3.027713
v 0.479984 0.709731 3.025300
v 0.635515 -1.256572 3.180324
v 0.479984 0.709731 -3.226350
v 0.728778 0.709731 -3.226350
v 0.728778 0.709731 -3.473042
v -0.660314 -1.256572 3.180324
v -0.506402 -1.256572 3.027713
v 0.635515 -1.256572 3.027713
v 0.481603 -1.256572 3.180324
v -0.506598 0.709731 3.026041
v 0.479984 0.709731 3.274713
v 0.728490 0.709731 3.026041
v 0.728490 0.709731 3.274835
vn 1.0000 -0.0000 -0.0000
vn -0.0000 -0.0000 1.0000
vn -1.0000 -0.0000 -0.0000
vn -0.0000 -0.0000 -1.0000
vn -0.0000 1.0000 -0.0000
vn -0.0000 -1.0000 -0.0000
vn 0.0026 -1.0000 -0.0000
vn -0.0000 -1.0000 0.0024
vn -0.0026 -1.0000 -0.0000
vn -0.0000 -1.0000 -0.0024
vn -0.0000 -0.0680 0.9977
vn 0.9978 -0.0658 -0.0000
vn -0.9980 -0.0636 -0.0000
vn -0.0000 -0.0530 -0.9986
vn -0.9999 0.0153 -0.0000
vn 0.9897 -0.1434 -0.0000
vn -0.9989 -0.0472 -0.0012
vn -0.0039 -0.0005 -1.0000
vn -1.0000 -0.0008 -0.0000
vn -0.0000 -0.0012 -1.0000
vn -0.0000 -0.0476 0.9989
vn 1.0000 0.0001 -0.0000
vn -0.0005 -0.0480 0.9988
vn 0.9989 -0.0472 -0.0000
vn -0.0000 -0.0008 1.0000
vn 1.0000 -0.0002 -0.0000
vn -0.0000 0.0002 1.0000
vn 0.9989 -0.0474 -0.0000
vn -0.0000 -0.0479 -0.9988
vn -0.0012 -0.0480 -0.9988
vn -0.9989 -0.0469 -0.0000
vn 0.0337 -0.9994 -0.0000
vn -0.0333 -0.9994 -0.0000
vn -0.0000 -0.9996 -0.0294
vn -0.0000 -0.9993 0.0381
vn -0.9989 -0.0471 -0.0000
vn -0.0000 -0.0009 -1.0000
vn 0.0030 -0.0010 -1.0000
vn -0.0000 -0.0479 0.9988
vn -0.0000 -0.0481 -0.9988
vn -0.9989 -0.0473 0.0053
vn 0.0336 -0.9994 -0.0000
vn -0.0000 -0.9996 -0.0296
vt 0.926934 0.636487
vt 0.075206 0.586427
vt 0.926934 0.586427
vt 0.024909 0.586427
vt 0.075206 0.359999
vt 0.926934 0.311262
vt 0.075206 0.311262
vt 0.975330 0.359999
vt 0.975330 0.586427
vt 0.990411 0.667810
vt 0.972488 0.968743
vt 0.972488 0.667810
vt 0.029412 0.987281
vt 0.029412 0.968743
vt 0.029412 0.667810
vt 0.013112 0.968743
vt 0.013112 0.667810
vt 0.029412 0.650243
vt 0.972488 0.650243
vt 0.099433 0.566144
vt 0.908237 0.382000
vt 0.099433 0.382000
vt 0.972488 0.968777
vt 0.075206 0.930055
vt 0.029412 0.968777
vt 0.926934 0.930055
vt 0.972488 0.667946
vt 0.926934 0.707618
vt 0.029412 0.667946
vt 0.075206 0.707618
vt 0.582241 0.121464
vt 0.760507 0.137243
vt 0.582241 0.137243
vt 0.761229 0.163845
vt 0.588736 0.163845
vt 0.757621 0.096305
vt 0.583685 0.096305
vt 0.757621 0.080471
vt 0.583685 0.080471
vt 0.759784 0.248253
vt 0.768346 0.289878
vt 0.757343 0.289878
vt 0.772007 0.121464
vt 0.769120 0.096305
vt 0.570742 0.121464
vt 0.770788 0.248253
vt 0.760507 0.121464
vt 0.021288 0.239533
vt 0.759784 0.239533
vt 0.757343 0.197908
vt 0.023730 0.197908
vt 0.023730 0.187271
vt 0.757343 0.187271
vt 0.021288 0.248253
vt 0.010285 0.239533
vt 0.012726 0.197908
vt 0.012726 0.197908
vt 0.010285 0.239533
vt 0.023730 0.197908
vt 0.757343 0.197908
vt 0.572185 0.096305
vt 0.885081 0.048376
vt 0.866840 0.030590
vt 0.885081 0.030590
vt 0.866840 0.048376
vt 0.891059 0.289641
vt 0.860861 0.289641
vt 0.921257 0.289641
vt 0.796556 0.289641
vt 0.848600 0.048376
vt 0.828710 0.289641
vt 0.903321 0.048376
vt 0.848600 0.048376
vt 0.830358 0.048376
vt 0.099433 0.382000
vt 0.926934 0.359999
vt 0.908237 0.382000
vt 0.099433 0.566144
vt 0.908237 0.566144
vt 0.075206 0.636482
vt 0.024909 0.359999
vt 0.990411 0.968743
vt 0.972488 0.987281
vt 0.908237 0.566144
vt 0.023730 0.289878
vt 0.903321 0.048376
vt 0.830358 0.048376
s 0
usemtl table_mt_old-dirty
f 15/1/1 18/2/1 19/3/1
f 14/4/2 17/5/2 18/2/2
f 12/6/3 17/5/3 13/7/3
f 19/3/4 12/8/4 15/9/4
f 4/10/4 11/11/4 8/12/4
f 11/11/3 6/13/3 10/14/3
f 9/15/2 6/16/2 5/17/2
f 8/12/1 5/18/1 4/19/1
f 10/14/5 8/12/5 11/11/5
f 3/20/6 2/21/6 1/22/6
f 7/23/7 13/24/7 6/25/7
f 12/26/8 4/27/8 15/28/8
f 5/29/9 15/28/9 4/27/9
f 6/25/10 14/30/10 5/29/10
f 29/31/5 28/32/5 32/33/5
f 32/33/4 27/34/4 31/35/4
f 26/36/2 29/31/2 30/37/2
f 27/38/6 30/37/6 31/39/6
f 21/40/11 23/41/11 22/42/11
f 28/43/12 26/36/12 27/44/12
f 32/45/13 30/37/13 29/31/13
f 34/42/11 36/46/11 33/40/11
f 50/37/4 37/47/4 49/31/4
f 21/40/5 41/48/5 24/49/5
f 23/50/3 41/48/3 42/51/3
f 23/50/6 43/52/6 22/53/6
f 22/42/1 44/54/1 21/40/1
f 42/51/14 44/55/14 43/56/14
f 45/48/14 47/57/14 48/58/14
f 48/54/5 36/49/5 45/48/5
f 48/54/3 34/42/3 33/40/3
f 46/59/6 34/53/6 47/52/6
f 45/48/1 35/60/1 46/59/1
f 38/44/15 37/47/15 39/36/15
f 51/61/16 49/31/16 52/45/16
f 49/31/5 40/32/5 52/33/5
f 51/35/2 40/32/2 38/34/2
f 50/37/6 38/38/6 39/36/6
f 55/62/6 54/63/6 69/64/6
f 57/62/6 58/63/6 60/65/6
f 71/62/6 70/63/6 77/65/6
f 79/62/6 80/63/6 56/64/6
f 65/66/17 77/65/17 66/67/17
f 81/68/18 71/62/18 65/66/18
f 72/69/19 80/70/19 82/71/19
f 72/68/20 79/62/20 56/72/20
f 67/71/21 77/65/21 70/73/21
f 81/69/22 70/73/22 78/74/22
f 82/71/23 73/65/23 84/67/23
f 83/66/24 73/65/24 79/62/24
f 63/68/25 55/62/25 69/72/25
f 63/69/26 54/73/26 62/71/26
f 74/68/27 57/62/27 75/66/27
f 75/66/28 60/65/28 76/67/28
f 64/71/29 60/65/29 58/70/29
f 62/71/30 68/65/30 53/67/30
f 74/69/19 58/70/19 59/74/19
f 61/66/31 68/65/31 55/62/31
f 3/75/32 16/76/32 20/77/32
f 1/78/33 19/3/33 18/2/33
f 1/78/34 17/5/34 3/75/34
f 16/76/35 2/79/35 20/77/35
f 15/1/1 14/80/1 18/2/1
f 14/4/2 13/81/2 17/5/2
f 12/6/3 16/76/3 17/5/3
f 19/3/4 16/76/4 12/8/4
f 4/10/4 7/82/4 11/11/4
f 11/11/3 7/83/3 6/13/3
f 9/15/2 10/14/2 6/16/2
f 8/12/1 9/15/1 5/18/1
f 10/14/5 9/15/5 8/12/5
f 3/20/6 20/84/6 2/21/6
f 7/23/7 12/26/7 13/24/7
f 12/26/8 7/23/8 4/27/8
f 5/29/9 14/30/9 15/28/9
f 6/25/10 13/24/10 14/30/10
f 29/31/5 25/47/5 28/32/5
f 32/33/4 28/32/4 27/34/4
f 26/36/2 25/47/2 29/31/2
f 27/38/6 26/36/6 30/37/6
f 21/40/11 24/46/11 23/41/11
f 28/43/12 25/47/12 26/36/12
f 32/45/13 31/61/13 30/37/13
f 34/42/11 35/41/11 36/46/11
f 50/37/4 39/36/4 37/47/4
f 21/40/5 44/54/5 41/48/5
f 23/50/3 24/49/3 41/48/3
f 23/50/6 42/51/6 43/52/6
f 22/42/1 43/85/1 44/54/1
f 42/51/14 41/48/14 44/55/14
f 45/48/14 46/59/14 47/57/14
f 48/54/5 33/40/5 36/49/5
f 48/54/3 47/85/3 34/42/3
f 46/59/6 35/60/6 34/53/6
f 45/48/1 36/49/1 35/60/1
f 38/44/15 40/43/15 37/47/15
f 51/61/16 50/37/16 49/31/16
f 49/31/5 37/47/5 40/32/5
f 51/35/2 52/33/2 40/32/2
f 50/37/6 51/39/6 38/38/6
f 55/62/6 68/65/6 54/63/6
f 57/62/6 59/64/6 58/63/6
f 71/62/6 78/64/6 70/63/6
f 79/62/6 73/65/6 80/63/6
f 65/66/36 71/62/36 77/65/36
f 81/68/37 78/86/37 71/62/37
f 72/69/19 56/87/19 80/70/19
f 72/68/38 83/66/38 79/62/38
f 67/71/21 66/67/21 77/65/21
f 81/69/22 67/71/22 70/73/22
f 82/71/39 80/70/39 73/65/39
f 83/66/24 84/67/24 73/65/24
f 63/68/25 61/66/25 55/62/25
f 63/69/26 69/87/26 54/73/26
f 74/68/27 59/72/27 57/62/27
f 75/66/28 57/62/28 60/65/28
f 64/71/29 76/67/29 60/65/29
f 62/71/40 54/73/40 68/65/40
f 74/69/19 64/71/19 58/70/19
f 61/66/41 53/67/41 68/65/41
f 3/75/42 17/5/42 16/76/42
f 1/78/33 2/79/33 19/3/33
f 1/78/43 18/2/43 17/5/43
f 16/76/35 19/3/35 2/79/35
