# Blender 4.0.2
# www.blender.org
mtllib potato.mtl
o dingus
v -1.431662 -0.619257 1.012626
v -0.019931 -1.268796 0.781854
v 0.531571 0.440298 0.832690
v 1.662076 0.328038 0.733074
v 1.695169 0.422477 0.793506
v 0.542048 0.825008 -0.493939
v 1.422305 0.401079 -0.658838
v -0.313730 0.810611 0.528257
v 1.141039 0.120739 0.682549
v -1.891799 -0.238516 -1.336739
v 0.330117 1.192647 0.479845
v 1.506992 0.047784 0.132856
v 1.671428 0.296333 0.814391
v -2.202083 0.759203 -0.454821
v 0.732267 0.098997 -0.843813
v -1.171077 1.298678 -0.389093
v -0.820169 0.216609 1.082028
v 1.190918 -1.184159 0.890448
v 0.753969 -1.146482 -0.982489
v 0.517446 0.897852 0.773171
v 1.445844 1.459824 -0.090429
v 1.655039 0.723479 0.935613
v -0.453983 -1.207741 -1.044983
v -1.246605 1.040190 -1.019633
v -2.622348 -0.492777 -0.721184
v 0.154707 -0.162380 1.079939
v 1.501046 -0.318943 -0.670708
v -1.946417 -1.164807 0.593378
v 1.678622 0.375258 0.763290
v 1.217106 1.137901 -0.333689
v -2.144243 0.147028 0.679548
v -1.696306 0.877114 0.537398
v -2.039700 -1.143604 0.031827
v -1.530539 -1.057224 -0.920976
v 1.295059 1.210547 0.861918
v 0.736269 0.577735 1.162286
v 1.452193 1.043453 -0.420342
v 1.890989 0.910461 0.249352
v 1.262026 -1.185933 0.003750
v 0.029857 1.005399 0.132462
v 1.346541 -0.800743 0.253018
vn -0.1040 0.6629 -0.7414
vn -0.7643 0.6181 -0.1836
vn -0.0940 0.9950 -0.0346
vn -0.0042 -0.8250 0.5652
vn 0.0437 -0.7162 -0.6965
vn 0.5912 -0.5538 0.5863
vn -0.0635 0.3209 0.9450
vn -0.0797 0.7685 0.6349
vn -0.3796 0.7262 0.5732
vn -0.2222 0.0141 0.9749
vn -0.5172 -0.7047 0.4857
vn -0.4847 -0.8734 -0.0472
vn 0.0580 0.7358 -0.6747
vn 0.1654 0.2299 -0.9590
vn -0.3425 -0.0235 -0.9392
vn -0.3986 0.4311 0.8095
vn 0.2073 0.7432 0.6361
vn -0.3429 0.9047 0.2528
vn 0.2868 0.9060 -0.3112
vn -0.1990 0.6421 -0.7403
vn 0.8367 -0.1166 -0.5351
vn 0.5224 -0.4708 0.7109
vn 0.6522 -0.7576 -0.0238
vn -0.9186 -0.2251 -0.3249
vn -0.2747 -0.7918 -0.5455
vn 0.2968 -0.6084 -0.7360
vn -0.0834 0.9959 -0.0352
vn 0.4069 -0.4596 0.7895
vn -0.3508 -0.1292 0.9275
vn 0.6465 -0.5606 0.5175
vn 0.6118 0.1737 -0.7717
vn 0.3960 0.4131 -0.8201
vn 0.9757 0.2179 -0.0213
vn 0.6521 0.1458 0.7440
vn 0.1241 0.0428 0.9913
vn -0.2436 -0.2099 0.9469
vn 0.9412 -0.3190 0.1110
vn -0.7287 0.2023 0.6543
vt 0.400338 0.868153
vt 0.181329 0.844718
vt 0.324114 0.890149
vt 0.643404 0.377301
vt 0.851849 0.413839
vt 0.631938 0.251961
vt 0.161913 0.540825
vt 0.346169 0.673665
vt 0.101820 0.771898
vt 0.467486 0.508748
vt 0.102707 0.407384
vt 0.147028 0.453391
vt 0.492038 0.412770
vt 0.382492 0.201020
vt 0.681930 0.721214
vt 0.646791 0.639524
vt 0.456950 0.863842
vt 0.250657 0.713802
vt 0.479129 0.608574
vt 0.672956 0.634462
vt 0.497442 0.727267
vt 0.827581 0.795328
vt 0.835166 0.753472
vt 0.869111 0.365396
vt 0.753710 0.230051
vt 0.746053 0.186141
vt 0.202429 0.652139
vt 0.276410 0.532511
vt 0.327678 0.333965
vt 0.382179 0.431852
vt 0.361635 0.242086
vt 0.469749 0.784585
vt 0.594839 0.632081
vt 0.212690 0.425685
vt 0.625385 0.374692
vt 0.572679 0.122807
vt 0.413338 0.773378
vt 0.508985 0.484664
vt 0.752339 0.377759
vt 0.728631 0.655035
vt 0.879935 0.584552
vt 0.888047 0.715784
vt 0.885243 0.582487
vt 0.736765 0.476226
vt 0.350725 0.356980
vt 0.649288 0.595469
vt 0.081388 0.419609
vt 0.363047 0.497670
vt 0.853016 0.294658
vt 0.816222 0.402135
vt 0.035162 0.636847
s 1
usemtl dingus.003
f 24/1/1 14/2/2 16/3/3
f 2/4/4 23/5/5 18/6/6
f 17/7/7 8/8/8 32/9/9
f 8/8/8 17/7/7 3/10/10
f 28/11/11 33/12/12 23/13/5
f 28/11/11 23/13/5 2/14/4
f 6/15/13 15/16/14 24/17/1
f 24/1/1 10/18/15 14/2/2
f 20/19/16 35/20/17 11/21/18
f 21/22/19 30/23/20 11/21/18
f 27/24/21 41/25/22 39/26/23
f 33/12/12 25/27/24 34/28/25
f 19/29/26 27/30/21 39/31/23
f 8/8/8 40/32/27 32/9/9
f 15/33/14 23/34/5 10/18/15
f 39/26/23 9/35/28 18/36/6
f 16/3/3 32/9/9 40/32/27
f 24/37/1 15/33/14 10/18/15
f 36/38/29 20/19/16 3/10/10
f 36/38/29 9/35/28 13/39/30
f 6/15/13 30/23/20 15/40/14
f 30/23/20 7/41/31 15/40/14
f 37/42/32 21/22/19 38/43/33
f 35/20/17 22/44/34 38/43/33
f 37/42/32 30/23/20 21/22/19
f 26/45/35 2/14/4 18/36/6
f 8/8/8 3/10/10 20/19/16
f 19/29/26 15/16/14 7/46/31
f 26/45/35 9/35/28 3/10/10
f 1/47/36 2/14/4 26/45/35
f 6/15/13 40/32/27 11/21/18
f 15/33/14 19/29/26 23/34/5
f 20/19/16 36/38/29 35/20/17
f 7/41/31 37/42/32 38/43/33
f 33/12/12 34/48/25 23/13/5
f 3/10/10 17/7/7 26/45/35
f 10/18/15 23/34/5 34/28/25
f 23/5/5 19/49/26 39/26/23
f 10/18/15 34/28/25 25/27/24
f 14/2/2 10/18/15 25/27/24
f 24/1/1 16/3/3 6/15/13
f 6/15/13 11/21/18 30/23/20
f 16/3/3 40/32/27 6/15/13
f 28/11/11 25/27/24 33/12/12
f 12/50/37 13/39/30 9/35/28
f 19/29/26 7/46/31 27/30/21
f 31/51/38 1/47/36 17/7/7
f 22/44/34 35/20/17 36/38/29
f 21/22/19 35/20/17 38/43/33
f 41/25/22 27/24/21 12/50/37
f 1/47/36 28/11/11 2/14/4
f 9/35/28 41/25/22 12/50/37
f 8/8/8 11/21/18 40/32/27
f 23/5/5 39/26/23 18/6/6
f 31/51/38 17/7/7 32/9/9
f 13/39/30 38/43/33 22/44/34
f 11/21/18 35/20/17 21/22/19
f 13/39/30 22/44/34 36/38/29
f 12/50/37 27/24/21 7/41/31
f 9/35/28 36/38/29 3/10/10
f 1/47/36 26/45/35 17/7/7
f 9/35/28 26/45/35 18/36/6
f 20/19/16 11/21/18 8/8/8
f 12/50/37 7/41/31 38/43/33
f 39/26/23 41/25/22 9/35/28
f 28/11/11 31/51/38 25/27/24
f 32/9/9 16/3/3 14/2/2
f 30/23/20 37/42/32 7/41/31
f 32/9/9 14/2/2 31/51/38
f 28/11/11 1/47/36 31/51/38
f 14/2/2 25/27/24 31/51/38
f 12/50/37 38/43/33 13/39/30
l 29 5
l 4 29
o whiskers
v 0.838480 0.145278 1.521369
v 0.424292 0.452519 1.288221
v 1.179576 -0.000616 1.145622
v 2.281735 -0.002624 0.174591
v 2.217453 0.510562 -0.078180
v 0.849453 -0.209219 1.405457
v 1.708539 0.698061 0.774458
v 1.500221 0.376500 0.947385
v 1.343286 0.678432 1.030426
v 1.684516 0.320830 0.781876
vn 0.7537 0.3640 0.5473
vn 0.7928 0.2637 0.5494
vn 0.8389 0.0825 0.5380
vn 0.6513 0.0191 0.7586
vn 0.4789 0.2172 0.8506
vn 0.6818 -0.2103 0.7006
vn 0.6827 -0.2079 0.7005
vn 0.4896 0.2927 0.8213
vn 0.0536 0.6485 0.7593
vn 0.8535 -0.0441 0.5192
vt 0.134477 0.037802
vt 0.102121 0.633494
vt 0.510414 0.359565
vt 0.509729 0.427995
vt 0.076213 0.246729
vt 0.343421 0.088428
vt 0.125744 -0.048355
vt 0.419923 0.732381
vt 0.022690 0.539611
vt 0.462313 0.659074
s 1
usemtl whiskers.003
f 45/52/39 46/53/40 51/54/41
f 49/55/42 42/56/43 44/57/44
f 44/57/44 42/56/43 47/58/45
f 42/56/43 49/55/42 50/59/46
f 50/59/46 43/60/47 42/56/43
f 48/61/48 51/54/41 46/53/40
