# Blender 4.0.2
# www.blender.org
mtllib high.mtl
o laptop
v 1.000000 0.012827 -1.573895
v -0.971730 0.323735 -1.496035
v 1.000000 0.012827 1.000000
v -0.971730 0.323736 0.915720
v -1.000000 0.012827 1.000000
v -1.000000 0.012827 -1.573896
v -1.583663 1.976237 1.000000
v -1.506187 1.919568 -1.496035
v -1.476693 1.929446 -1.496035
v -1.583662 1.976237 -1.573895
v -1.506187 1.919569 0.915720
v -0.895878 0.012827 -1.573896
v -1.476693 1.929446 0.915720
v -0.895878 0.012827 1.000000
v -1.479540 2.012827 -1.573895
v -1.479541 2.012827 1.000000
v 1.000000 0.270071 -1.573895
v 1.000000 0.270071 1.000000
v -1.000000 0.270071 1.000000
v -1.000000 0.270071 -1.573896
v -0.895878 0.270071 1.000000
v -0.895878 0.270071 -1.573896
v -1.476259 1.922171 -1.496132
v -1.476259 1.922171 0.922237
v -0.941987 0.326890 -1.496133
v -0.941987 0.326890 0.922237
v 0.413239 0.270071 -1.573895
v 0.413239 0.270071 1.000000
v -0.944037 0.333010 -1.496035
v -1.476238 1.922107 -1.496035
v -0.944037 0.333010 0.912959
v -1.476259 1.922171 -1.496035
v -1.476259 1.922174 -1.496035
v -1.476502 1.928874 0.915720
v -1.476502 1.928874 -1.311579
v -1.476259 1.922171 0.915720
v -0.944037 0.333010 0.915720
v -1.476502 1.928873 -1.496035
vn -0.3315 0.9434 -0.0000
vn -0.0000 -0.0000 1.0000
vn 1.0000 -0.0000 -0.0000
vn -0.0000 -1.0000 -0.0000
vn -0.0000 -0.0000 -1.0000
vn -0.9462 -0.3237 -0.0000
vn -1.0000 -0.0000 -0.0000
vn 0.9482 0.3177 0.0016
vn -0.0000 1.0000 -0.0000
vn 0.9993 0.0362 -0.0000
vn 0.9004 0.3016 0.3136
vn 0.9004 0.3016 -0.3136
vn 0.7765 0.6301 -0.0000
vn 0.9471 0.3209 -0.0000
vn 0.9482 0.3176 -0.0001
vn -0.3176 0.9482 -0.0000
vn 0.3176 -0.9482 -0.0000
vn 0.9482 0.3176 -0.0000
vn -0.9483 -0.3174 -0.0000
vn 0.9482 0.3177 -0.0007
vn 0.9993 0.0363 -0.0002
vn 0.9993 0.0362 0.0001
vn -0.9929 -0.0000 -0.1188
vn -0.9929 -0.0001 -0.1188
vn -0.9483 -0.3173 -0.0000
vn -0.9484 -0.3172 -0.0000
vt 0.682604 0.005242
vt 0.682603 0.021207
vt 0.310265 0.005245
vt 0.044426 0.009206
vt 0.310266 0.021211
vt 0.753340 0.119988
vt 0.810356 0.119988
vt 0.753340 0.597765
vt 0.856851 0.982221
vt 0.745750 0.982220
vt 0.856851 0.831387
vt 0.948453 0.009205
vt 0.878028 0.831387
vt 0.983700 0.982221
vt 0.878028 0.982221
vt 0.862953 0.831387
vt 0.862953 0.982221
vt 0.728292 0.490807
vt 0.728263 0.989849
vt 0.728263 0.492722
vt 0.831643 0.129995
vt 0.982007 0.129995
vt 0.831643 0.789586
vt 0.758228 0.812821
vt 0.758228 0.812823
vt 0.756060 0.752868
vt 0.758249 0.754997
vt 0.758087 0.754989
vt 0.798519 0.812617
vt 0.756052 0.814797
vt 0.798577 0.754909
vt 0.758249 0.754841
vt 0.800285 0.814587
vt 0.707729 0.114386
vt 0.707729 0.471212
vt 0.006162 0.114385
vt 0.345650 0.099088
vt 0.497058 0.032709
vt 0.497058 0.099088
vt 0.990661 0.099453
vt 0.838275 0.032645
vt 0.990661 0.032645
vt 0.007709 0.008663
vt 0.012705 0.022873
vt 0.983559 0.009737
vt 0.943457 0.023414
vt 0.049421 0.023416
vt 0.810356 0.597766
vt 0.745750 0.831387
vt 0.983700 0.831387
vt 0.728292 0.989869
vt 0.728263 0.989869
vt 0.010900 0.989869
vt 0.010900 0.490807
vt 0.012833 0.492722
vt 0.982007 0.789586
vt 0.758068 0.808390
vt 0.758067 0.812828
vt 0.800332 0.752938
vt 0.006162 0.471212
vt 0.007844 0.099088
vt 0.007844 0.032709
vt 0.498289 0.099453
vt 0.498289 0.032646
vt 0.978563 0.023946
vt 0.375000 0.250000
vt 0.609740 0.249714
vt 0.609740 0.000000
vt 0.375000 0.500000
vt 0.375000 0.486114
vt 0.375000 0.486001
vt 0.375000 0.750000
vt 0.625000 0.500000
vt 0.625000 0.999158
vt 0.375000 0.763999
vt 0.125000 0.750000
vt 0.625000 0.750000
vt 0.625090 0.500000
vt 0.013652 0.492722
vt 0.012833 0.989869
vt 0.375000 0.000000
vt 0.609740 0.250000
vt 0.375000 0.486204
vt 0.375000 0.763886
vt 0.375000 0.763796
vt 0.375000 1.000000
vt 0.375000 0.764009
s 0
usemtl Material.001
f 15/1/1 10/2/1 16/3/1
f 21/4/2 16/3/2 7/5/2
f 1/6/3 17/7/3 3/8/3
f 12/9/4 1/10/4 14/11/4
f 15/1/5 22/12/5 10/2/5
f 19/13/6 10/14/6 20/15/6
f 19/13/7 20/15/7 5/16/7
f 12/9/4 14/11/4 6/17/4
f 25/18/8 30/19/8 29/20/8
f 17/21/9 27/22/9 18/23/9
f 32/24/3 23/25/3 33/24/3
f 16/26/10 36/27/10 34/28/10
f 23/25/11 25/29/11 15/30/11
f 26/31/12 24/32/12 16/26/12
f 25/29/13 26/31/13 22/33/13
f 27/34/9 22/35/9 28/36/9
f 28/37/2 3/38/2 18/39/2
f 1/40/5 27/41/5 17/42/5
f 14/43/2 21/4/2 5/44/2
f 22/12/5 12/45/5 20/46/5
f 10/2/1 7/5/1 16/3/1
f 19/47/2 21/4/2 7/5/2
f 17/7/3 18/48/3 3/8/3
f 1/10/4 3/49/4 14/11/4
f 22/12/5 20/46/5 10/2/5
f 19/13/6 7/50/6 10/14/6
f 20/15/7 6/17/7 5/16/7
f 14/11/4 5/16/4 6/17/4
f 30/19/14 23/51/14 32/52/14
f 24/53/15 26/54/15 37/55/15
f 27/22/9 28/56/9 18/23/9
f 15/30/10 35/57/10 38/58/10
f 25/29/11 22/33/11 15/30/11
f 21/59/12 26/31/12 16/26/12
f 26/31/13 21/59/13 22/33/13
f 22/35/9 21/60/9 28/36/9
f 21/61/2 14/62/2 3/38/2
f 28/37/2 21/61/2 3/38/2
f 12/63/5 22/64/5 1/40/5
f 22/64/5 27/41/5 1/40/5
f 21/4/2 19/47/2 5/44/2
f 12/45/5 6/65/5 20/46/5
f 4/66/16 31/67/16 29/68/16
f 11/69/5 34/70/5 36/71/5
f 8/72/17 13/73/17 11/69/17
f 8/72/2 29/74/2 32/75/2
f 2/76/18 11/69/18 4/76/18
f 13/77/19 38/78/19 35/78/19
f 31/79/18 26/54/18 25/18/18
f 25/18/20 23/51/20 30/19/20
f 29/20/18 31/79/18 25/18/18
f 16/26/10 24/32/10 36/27/10
f 34/28/10 35/57/10 16/26/10
f 37/55/18 36/80/18 24/53/18
f 26/54/18 31/79/18 37/55/18
f 38/58/21 33/24/21 23/25/21
f 15/30/10 16/26/10 35/57/10
f 38/58/22 23/25/22 15/30/22
f 29/68/16 2/81/16 4/66/16
f 4/66/16 37/82/16 31/67/16
f 36/71/5 37/82/5 4/66/5
f 11/69/5 13/83/5 34/70/5
f 36/71/5 4/66/5 11/69/5
f 8/72/17 9/77/17 13/73/17
f 32/75/2 33/75/2 38/84/2
f 38/84/2 9/85/2 8/72/2
f 8/72/2 2/86/2 29/74/2
f 29/74/23 30/87/23 32/75/24
f 32/75/2 38/84/2 8/72/2
f 2/76/18 8/69/18 11/69/18
f 35/78/25 34/78/25 13/77/25
f 13/77/26 9/77/26 38/78/26
o screen
v -0.971730 0.323735 -1.496035
v -0.942237 0.333613 -1.496035
v -0.971730 0.323736 0.915720
v -0.942236 0.333613 0.915720
v -1.506187 1.919569 -1.496035
v -1.476693 1.929446 -1.496035
v -1.506187 1.919569 0.915720
v -1.476693 1.929446 0.915720
vn 0.3176 -0.9482 -0.0000
vn -0.0000 -0.0000 1.0000
vn -0.3176 0.9482 -0.0000
vn -0.0000 -0.0000 -1.0000
vn -0.9482 -0.3176 -0.0000
vn 0.9482 0.3176 -0.0000
vn 0.3175 -0.9482 -0.0000
vn -0.3175 0.9482 -0.0000
vt 0.625000 0.000000
vt 0.375000 0.250000
vt 0.375000 0.000000
vt 0.625000 0.250000
vt 0.375000 0.500000
vt 0.625000 0.500000
vt 0.375000 0.750000
vt 0.625000 1.000000
vt 0.375000 1.000000
vt 0.125000 0.750000
vt 0.125000 0.500000
vt 0.000058 1.000050
vt 0.999968 -0.000023
vt 0.000002 0.000012
vt 0.625000 0.750000
vt 1.000024 1.000014
s 0
usemtl Material.002
f 40/88/27 41/89/27 39/90/27
f 42/91/28 45/92/28 41/89/28
f 46/93/29 43/94/29 45/92/29
f 43/94/30 40/95/30 39/96/30
f 45/92/31 39/97/31 41/98/31
f 42/99/32 44/100/32 46/101/32
f 40/88/33 42/91/33 41/89/33
f 42/91/28 46/93/28 45/92/28
f 46/93/34 44/102/34 43/94/34
f 43/94/30 44/102/30 40/95/30
f 45/92/31 43/94/31 39/97/31
f 42/99/32 40/103/32 44/100/32
