# Blender 4.0.2
# www.blender.org
mtllib high.mtl
o wall0.1
v -23.059389 11.488936 -35.523876
v -23.059389 -0.511064 -35.523876
v -23.059389 11.488943 35.987125
v -23.059389 -0.511057 35.987125
v -20.940611 11.488936 -35.523876
v -20.940611 -0.511064 -35.523876
v -20.940611 11.488943 35.987125
v -20.940611 -0.511057 35.987125
vn -1.0000 -0.0000 -0.0000
vn -0.0000 -0.0000 1.0000
vn 1.0000 -0.0000 -0.0000
vn -0.0000 -0.0000 -1.0000
vn -0.0000 1.0000 -0.0000
vn -0.0000 -1.0000 -0.0000
vt -11.999999 -1.999994
vt 13.000000 2.999993
vt -12.000001 3.000000
vt 0.000002 1.000000
vt 0.999998 0.000000
vt 1.000000 1.000000
vt 13.000001 -2.000000
vt 0.000000 0.000000
s 0
usemtl Material.008
f 2/1/1 3/2/1 1/3/1
f 4/4/2 7/5/2 3/6/2
f 8/1/3 5/2/3 7/3/3
f 6/7/4 1/7/4 5/7/4
f 7/7/5 1/7/5 3/7/5
f 4/7/6 6/7/6 8/7/6
f 2/1/1 4/7/1 3/2/1
f 4/4/2 8/8/2 7/5/2
f 8/1/3 6/7/3 5/2/3
f 6/7/4 2/7/4 1/7/4
f 7/7/5 5/7/5 1/7/5
f 4/7/6 2/7/6 6/7/6
