# Blender 4.0.2
# www.blender.org
mtllib high.mtl
o rock
v 0.369850 -0.022322 0.209580
v -0.132865 -0.067334 0.329268
v -0.403442 -0.075720 -0.040193
v 0.042267 -0.060663 -0.276813
v 0.328884 -0.057907 -0.139098
v 0.043364 0.057178 0.363226
v -0.249748 0.176391 0.257102
v -0.380704 0.053253 -0.166163
v -0.008741 0.252406 -0.336837
v 0.417577 0.226298 0.014819
v 0.069215 0.332188 0.223532
v -0.032881 0.066071 -0.350006
v 0.298068 0.300722 0.135679
v -0.255778 0.257994 0.101899
vn 0.1096 -0.9901 0.0882
vn 0.0131 -0.9999 -0.0072
vn -0.3530 -0.6160 -0.7042
vn 0.3762 0.3913 0.8399
vn -0.5578 0.7642 -0.3238
vn 0.0330 -0.9995 -0.0015
vn 0.9634 -0.2534 -0.0873
vn 0.2393 -0.5558 0.7961
vn -0.7873 -0.2055 0.5813
vn -0.3474 -0.6232 -0.7007
vn 0.5026 -0.0040 -0.8645
vn 0.4209 -0.2534 -0.8710
vn 0.4647 0.2943 0.8351
vn 0.7642 0.3004 0.5707
vn -0.2845 0.1442 0.9478
vn -0.9258 0.3348 0.1757
vn -0.9244 0.3217 0.2051
vn -0.4673 0.1224 -0.8756
vn 0.6299 0.2086 -0.7481
vn -0.3545 0.8219 0.4459
vn -0.1316 0.4587 0.8788
vn -0.1804 0.9770 -0.1140
vn 0.0775 0.9855 -0.1511
vn 0.2872 0.9160 -0.2801
s 0
usemtl rock
f 1//1 2//1 5//1
f 5//2 2//2 4//2
f 4//3 3//3 12//3
f 6//4 13//4 11//4
f 8//5 14//5 9//5
f 4//6 2//6 3//6
f 1//7 5//7 10//7
f 6//8 2//8 1//8
f 3//9 2//9 7//9
f 12//10 3//10 8//10
f 5//11 12//11 9//11
f 5//12 4//12 12//12
f 1//13 13//13 6//13
f 1//14 10//14 13//14
f 2//15 6//15 7//15
f 8//16 3//16 14//16
f 3//17 7//17 14//17
f 12//18 8//18 9//18
f 5//19 9//19 10//19
f 14//20 7//20 11//20
f 7//21 6//21 11//21
f 9//22 14//22 11//22
f 13//23 9//23 11//23
f 13//24 10//24 9//24
